<svg xmlns="http://www.w3.org/2000/svg" viewBox="0 0 320 240" aria-label="GoPotty — Smart Potty Solutions">
  <!-- Mark -->
  <g transform="translate(100, 0)">
    <!-- Water drop -->
    <path d="M60 12 C60 12 50 26 50 34 C50 39.5 54.5 44 60 44 C65.5 44 70 39.5 70 34 C70 26 60 12 60 12 Z" fill="#2BB8B0"/>
    <!-- Left ear -->
    <path d="M30 52 C28 48 30 42 36 42" stroke="#2BB8B0" stroke-width="4.5" stroke-linecap="round" fill="none"/>
    <path d="M36 50 C40 56 46 58 52 58" stroke="#2BB8B0" stroke-width="4.5" stroke-linecap="round" fill="none"/>
    <!-- Right ear -->
    <path d="M90 52 C92 48 90 42 84 42" stroke="#2BB8B0" stroke-width="4.5" stroke-linecap="round" fill="none"/>
    <path d="M84 50 C80 56 74 58 68 58" stroke="#2BB8B0" stroke-width="4.5" stroke-linecap="round" fill="none"/>
    <!-- Eye left winking -->
    <path d="M46 62 C48 60 52 60 54 62" stroke="#2BB8B0" stroke-width="3" stroke-linecap="round" fill="none"/>
    <!-- Eye right -->
    <circle cx="74" cy="62" r="3" fill="#1A2B3C"/>
    <!-- Face -->
    <path d="M38 64 C36 76 42 88 52 92 C56 94 64 94 68 92 C78 88 84 76 82 64" stroke="#2BB8B0" stroke-width="4.5" stroke-linecap="round" fill="none"/>
    <!-- Nose -->
    <ellipse cx="60" cy="76" rx="6" ry="5" fill="#2BB8B0"/>
    <!-- Mouth -->
    <path d="M60 81 L60 86 M60 86 C57 88 54 87 53 85 M60 86 C63 88 66 87 67 85" stroke="#2BB8B0" stroke-width="2.5" stroke-linecap="round" fill="none"/>
  </g>

  <!-- Wordmark -->
  <text x="160" y="160" font-family="Inter, -apple-system, sans-serif" font-size="56" font-weight="800" text-anchor="middle" letter-spacing="-2">
    <tspan fill="#2BB8B0">Go</tspan><tspan fill="#1A2B3C">Potty</tspan>
  </text>
  <text x="260" y="135" font-family="Inter, sans-serif" font-size="11" fill="#1A2B3C">™</text>

  <!-- Tagline -->
  <text x="160" y="195" font-family="Inter, -apple-system, sans-serif" font-size="13" font-weight="600" letter-spacing="3" text-anchor="middle" fill="#1A2B3C">SMART POTTY SOLUTIONS</text>
</svg>
