<svg xmlns="http://www.w3.org/2000/svg" viewBox="0 0 280 70" aria-label="GoPotty">
  <!-- Mark scaled to ~56px tall -->
  <g transform="translate(35, 35) scale(0.22)">
    <!-- Water drop -->
    <path d="M 0 -110 C 0 -110 -22 -80 -22 -60 C -22 -48 -12 -38 0 -38 C 12 -38 22 -48 22 -60 C 22 -80 0 -110 0 -110 Z" fill="#3FBFB7"/>
    <!-- Left ear -->
    <path d="M -90 -30 C -100 -40 -100 -54 -86 -60 C -78 -64 -68 -60 -64 -52 C -56 -40 -40 -30 -22 -26" stroke="#3FBFB7" stroke-width="9" stroke-linecap="round" stroke-linejoin="round" fill="none"/>
    <!-- Right ear -->
    <path d="M 22 -26 C 40 -30 56 -40 64 -52 C 68 -60 78 -64 86 -60 C 100 -54 100 -40 90 -30" stroke="#3FBFB7" stroke-width="9" stroke-linecap="round" stroke-linejoin="round" fill="none"/>
    <!-- Chin -->
    <path d="M -78 -16 C -82 16 -70 48 -46 64 C -32 74 -16 78 0 78 C 16 78 32 74 46 64 C 70 48 82 16 78 -16" stroke="#3FBFB7" stroke-width="9" stroke-linecap="round" fill="none"/>
    <!-- Eyes -->
    <path d="M -42 2 C -36 -6 -22 -6 -16 2" stroke="#3FBFB7" stroke-width="7" stroke-linecap="round" fill="none"/>
    <circle cx="34" cy="2" r="7" fill="#1A2B3C"/>
    <!-- Muzzle -->
    <path d="M -28 28 C -22 44 -10 52 0 52 C 10 52 22 44 28 28" stroke="#3FBFB7" stroke-width="7" stroke-linecap="round" fill="none"/>
    <!-- Nose -->
    <ellipse cx="0" cy="32" rx="10" ry="8" fill="#3FBFB7"/>
    <!-- Mouth -->
    <path d="M 0 40 L 0 52" stroke="#3FBFB7" stroke-width="5" stroke-linecap="round"/>
    <path d="M 0 52 C -6 60 -14 60 -18 56" stroke="#3FBFB7" stroke-width="5" stroke-linecap="round" fill="none"/>
    <path d="M 0 52 C 6 60 14 60 18 56" stroke="#3FBFB7" stroke-width="5" stroke-linecap="round" fill="none"/>
  </g>

  <!-- Wordmark -->
  <text x="80" y="48" font-family="'Inter', -apple-system, sans-serif" font-size="36" font-weight="800" letter-spacing="-1.5">
    <tspan fill="#3FBFB7">Go</tspan><tspan fill="#1A2B3C">Potty</tspan>
  </text>
  <text x="222" y="22" font-family="'Inter', sans-serif" font-size="10" fill="#1A2B3C">™</text>
</svg>
